<svg xmlns="http://www.w3.org/2000/svg" xml:space="preserve" id="Layer_1" x="0" y="0" version="1.1"
     viewBox="0 0 512 512">
  <path fill="#179CF9"
        d="M1 462V1c136.355 0 272.71 0 409.533.469.467 17.047.467 33.625.467 50.67h51.171V102H513c0 85.689 0 171.377-.469 257.533-17.056.467-33.644.467-50.71.467v52.198H257V513c-68.355 0-136.71 0-205.533-.469C51 495.473 51 478.883 51 462H1m359.93-204.926h48.921V102.875h-51.056c0-16.619 0-32.746.064-49.393-.287-.133-.573-.265-1.784-.566H51.998c-.112 1.957-.26 3.413-.268 4.87-.093 19.163-.236 38.326-.234 57.49.006 94.991.057 189.984.063 284.976 0 2.61-.26 5.228-.514 7.83-.27 2.763.81 4.082 3.656 3.926 3.48-.19 6.966-.412 10.45-.423 27.83-.09 55.66-.127 83.491-.2 1.744-.004 3.487-.175 5.662-.292 0-34.065 0-67.544.334-101.248.176-.206.313-.436 1.334-.818 11.815-.082 23.63-.228 35.445-.233 53.767-.026 107.535-.083 161.301.103 5.132.018 6.445-1.44 6.349-6.465-.285-14.805 0-29.62.388-44.658.207-.168.389-.36 1.475-.7z"/>
    <path fill="#FFF"
          d="M359.13 258.001c-.063 14.811-.348 29.626-.063 44.43.096 5.026-1.217 6.484-6.349 6.466-53.766-.186-107.534-.129-161.3-.103-11.816.005-23.63.151-36.162.31-.795.375-.873.67-.952.967v101.022c-2.175.117-3.918.288-5.662.292-27.83.073-55.66.11-83.49.2-3.485.01-6.97.232-10.451.423-2.846.156-3.925-1.163-3.656-3.925.254-2.603.514-5.22.514-7.831-.006-94.992-.057-189.985-.063-284.977-.002-19.163.14-38.326.234-57.489.007-1.457.156-2.913.268-4.87 101.864 0 203.47 0 305.648.257.736.475.93.666 1.15.83v48.872h51.055v154.199c-16.378 0-32.65 0-49.643.032-.84.32-.96.608-1.079.895M154.153 104.956c.05 50.658.1 101.316.056 152.472.278.138.556.277 1.755.545 7.272-.274 14.543-.77 21.816-.784 41.078-.077 82.157-.034 123.236-.048 1.988-.001 3.975-.164 6.47-.288.087-.294.175-.587.361-1.81-.033-50.336-.066-100.672-.018-151.517-.283-.133-.565-.266-1.772-.548-34.397-.012-68.794-.044-103.19-.026-15.948.008-31.896.113-48.358.18-.086.298-.171.597-.356 1.824z"/>
    <path fill="#E8F3FE" d="M358.827 53.742c-.252.097-.445-.094-.719-.485.178-.04.464.092.719.485z"/>
    <path fill="#2CA1F9" d="M359.292 257.888c-.044-.174.075-.462.451-.72.1.246-.08.438-.45.72z"/>
    <path fill="#5EB2FA" d="M154.471 309.958c-.088-.183-.01-.48.324-.789.156.24.019.47-.324.79z"/>
    <path fill="#179CF9"
          d="M154.304 256.93c-.05-50.658-.1-101.316.062-152.555.402-.776.55-.999.657-1.248 15.948-.062 31.896-.167 47.844-.175 34.396-.018 68.793.014 103.747.278.699.49.892.673 1.134.804.033 50.337.066 100.673-.115 151.594-.405.78-.552 1.006-.654 1.261-1.988.088-3.975.25-5.963.252-41.079.014-82.158-.029-123.236.048-7.273.013-14.544.51-22.363.538-.67-.498-.858-.682-1.113-.797z"/>
    <path fill="#49AAFA"
          d="M154.766 103.13c.15.246.002.469-.35.78-.078-.181.007-.48.35-.78zM307.789 103.78c-.283.123-.476-.06-.713-.475.188-.045.47.088.713.475zM307.232 256.87c-.15-.236-.004-.462.352-.778.077.174-.01.467-.352.779z"/>
    <path fill="#5EB2FA" d="M154.257 257.179c.302-.134.49.05.7.483-.192.043-.47-.096-.7-.483z"/>
</svg>